<?xml version="1.0" encoding="UTF-8" standalone="no"?>
<svg
   xmlns:dc="http://purl.org/dc/elements/1.1/"
   xmlns:cc="http://creativecommons.org/ns#"
   xmlns:rdf="http://www.w3.org/1999/02/22-rdf-syntax-ns#"
   xmlns:svg="http://www.w3.org/2000/svg"
   xmlns="http://www.w3.org/2000/svg"
   xmlns:sodipodi="http://sodipodi.sourceforge.net/DTD/sodipodi-0.dtd"
   xmlns:inkscape="http://www.inkscape.org/namespaces/inkscape"
   width="48"
   height="48"
   viewBox="0 0 48 48"
   version="1.1"
   id="svg6"
   sodipodi:docname="ic_square_passwordmanager.svg"
   inkscape:version="0.92.2 2405546, 2018-03-11"
   inkscape:export-xdpi="1024"
   inkscape:export-ydpi="1024">
  <metadata
     id="metadata12">
    <rdf:RDF>
      <cc:Work
         rdf:about="">
        <dc:format>image/svg+xml</dc:format>
        <dc:type
           rdf:resource="http://purl.org/dc/dcmitype/StillImage" />
        <dc:title></dc:title>
      </cc:Work>
    </rdf:RDF>
  </metadata>
  <defs
     id="defs10" />
  <sodipodi:namedview
     pagecolor="#ffffff"
     bordercolor="#666666"
     borderopacity="1"
     objecttolerance="10"
     gridtolerance="10"
     guidetolerance="10"
     inkscape:pageopacity="0"
     inkscape:pageshadow="2"
     inkscape:window-width="1418"
     inkscape:window-height="848"
     id="namedview8"
     showgrid="false"
     inkscape:zoom="9.8333333"
     inkscape:cx="26.006251"
     inkscape:cy="29.897589"
     inkscape:window-x="342"
     inkscape:window-y="158"
     inkscape:window-maximized="0"
     inkscape:current-layer="svg6" />
  <path
     style="opacity:1;fill:#2c8352;fill-opacity:1;fill-rule:nonzero;stroke:none;stroke-width:1.91409552;stroke-linecap:butt;stroke-linejoin:miter;stroke-miterlimit:4;stroke-dasharray:none;stroke-dashoffset:1.99954295;stroke-opacity:1;paint-order:normal"
     d="M 48,24 C 48,37.254834 37.254834,48 24,48 10.745166,48 0,37.254834 0,24"
     id="path864"
     inkscape:connector-curvature="0"
     sodipodi:nodetypes="csc" />
  <path
     d="M0 0h48v48H0z"
     fill="none"
     id="path2" />
  <path
     style="opacity:1;fill:#2c714a;fill-opacity:1;fill-rule:nonzero;stroke:none;stroke-width:1.91409552;stroke-linecap:butt;stroke-linejoin:miter;stroke-miterlimit:4;stroke-dasharray:none;stroke-dashoffset:1.99954295;stroke-opacity:1;paint-order:normal"
     d="M 0,24 C 0,10.745165 10.745168,-10e-7 24.000002,-10e-7 c 13.254834,0 24,10.745166 24,24.000001"
     id="path864-6"
     inkscape:connector-curvature="0"
     sodipodi:nodetypes="csc" />
  <path
     inkscape:connector-curvature="0"
     d="M 25.122726,20.499997 C 23.697726,16.422503 19.871819,13.5 15.363636,13.5 9.6377273,13.5 5,18.19875 5,24 c 0,5.80125 4.6377273,10.5 10.363636,10.5 4.508183,0 8.33409,-2.922503 9.75909,-6.999997 h 7.513638 V 34.5 h 6.909089 V 27.500003 H 43 v -7.000006 z m -9.75909,7.000006 c -1.908636,0 -3.454544,-1.566256 -3.454544,-3.500003 0,-1.933747 1.545908,-3.500003 3.454544,-3.500003 1.908637,0 3.454545,1.566256 3.454545,3.500003 0,1.933747 -1.545908,3.500003 -3.454545,3.500003 z"
     id="path4"
     style="fill:#ffffff;stroke-width:0.86929953" />
</svg>
