<?xml version="1.0" encoding="UTF-8" standalone="no"?>
<svg
   xmlns:dc="http://purl.org/dc/elements/1.1/"
   xmlns:cc="http://creativecommons.org/ns#"
   xmlns:rdf="http://www.w3.org/1999/02/22-rdf-syntax-ns#"
   xmlns:svg="http://www.w3.org/2000/svg"
   xmlns="http://www.w3.org/2000/svg"
   xmlns:sodipodi="http://sodipodi.sourceforge.net/DTD/sodipodi-0.dtd"
   xmlns:inkscape="http://www.inkscape.org/namespaces/inkscape"
   height="24"
   version="1.1"
   width="24"
   id="svg28"
   sodipodi:docname="passwordmanager-circle.svg"
   inkscape:version="0.92.2 2405546, 2018-03-11"
   inkscape:export-filename="/run/media/martchus/files/programming/projects/c++/cmake/passwordmanager/android/res/drawable-xhdpi/passwordmanager.png"
   inkscape:export-xdpi="2048"
   inkscape:export-ydpi="2048">
  <metadata
     id="metadata34">
    <rdf:RDF>
      <cc:Work
         rdf:about="">
        <dc:format>image/svg+xml</dc:format>
        <dc:type
           rdf:resource="http://purl.org/dc/dcmitype/StillImage" />
      </cc:Work>
    </rdf:RDF>
  </metadata>
  <defs
     id="defs32" />
  <sodipodi:namedview
     pagecolor="#ffffff"
     bordercolor="#666666"
     borderopacity="1"
     objecttolerance="10"
     gridtolerance="10"
     guidetolerance="10"
     inkscape:pageopacity="0"
     inkscape:pageshadow="2"
     inkscape:window-width="1920"
     inkscape:window-height="1039"
     id="namedview30"
     showgrid="false"
     inkscape:zoom="19.666667"
     inkscape:cx="2.4467278"
     inkscape:cy="6.3485545"
     inkscape:window-x="0"
     inkscape:window-y="18"
     inkscape:window-maximized="1"
     inkscape:current-layer="svg28" />
  <circle
     style="opacity:1;fill:#f4eed7;fill-opacity:0.98581561;fill-rule:nonzero;stroke:none;stroke-width:2.08891916;stroke-linecap:butt;stroke-linejoin:miter;stroke-miterlimit:4;stroke-dasharray:none;stroke-dashoffset:1.99954295;stroke-opacity:1;paint-order:normal"
     id="path4545"
     cx="12"
     cy="12"
     r="12" />
  <path
     style="fill:#7f8c8d;stroke-width:0.84084862"
     inkscape:connector-curvature="0"
     id="path2"
     d="m 12,4.2435477 c -2.416225,0 -4.375,2.1008784 -4.375,4.848181 v 0.8080302 c 0,0.4040151 0.3264625,0.8080301 0.7291375,0.8080301 0.4027625,0 0.729225,-0.404015 0.729225,-0.8080301 V 9.0917287 C 9.0833625,7.1524563 10.389125,5.617199 12,5.617199 c 1.610875,0 2.916375,1.5352573 2.916375,3.4745297 v 0.8080302 c 0,0.4040151 0.326375,0.8080301 0.72975,0.8080301 0.4025,0 0.728875,-0.404015 0.728875,-0.8080301 V 9.0917287 c 0,-2.7473026 -1.959125,-4.848181 -4.375,-4.848181 z" />
  <path
     style="fill:#f9e48e;stroke-width:0.84084862;fill-opacity:1"
     inkscape:connector-curvature="0"
     id="path4"
     d="M 6.75,9.0917287 C 5.783475,9.0917287 5,9.8189559 5,10.707789 V 16.364 c 0,0.888834 0.783475,1.616061 1.75,1.616061 h 10.5 c 0.966875,0 1.75,-0.727227 1.75,-1.616061 V 10.707789 C 19,9.8189559 18.216875,9.0917287 17.25,9.0917287 Z" />
  <path
     style="fill:#bdc3c7;stroke-width:0.84084862"
     inkscape:connector-curvature="0"
     id="path6"
     d="m 12,3.0315024 c -2.8994875,0 -5.25,2.1816815 -5.25,4.8481811 v 0.8080301 c 0,0.4848182 0.3917375,0.8080302 0.875,0.8080302 0.4832625,0 0.875,-0.323212 0.875,-0.8080302 V 7.8796835 c 0,-1.8584695 1.567038,-3.3937268 3.5,-3.3937268 1.932875,0 3.5,1.5352573 3.5,3.3937268 v 0.8080301 c 0,0.4848182 0.392,0.8080302 0.875,0.8080302 0.483,0 0.875,-0.323212 0.875,-0.8080302 V 7.8796835 C 17.25,5.2131839 14.89975,3.0315024 12,3.0315024 Z" />
  <path
     style="fill:#f7be62;stroke-width:0.84084862;fill-opacity:1"
     inkscape:connector-curvature="0"
     id="path8"
     d="m 6.75,10.707789 c -0.966525,0 -1.75,0.727227 -1.75,1.61606 v 5.656212 c 0,0.888833 0.783475,1.61606 1.75,1.61606 h 10.5 c 0.966875,0 1.75,-0.727227 1.75,-1.61606 v -5.656212 c 0,-0.888833 -0.783125,-1.61606 -1.75,-1.61606 z" />
  <path
     style="fill:#7f8c8d;stroke-width:0.84084862"
     inkscape:connector-curvature="0"
     id="path10"
     d="m 7.036125,9.0917287 c -0.2977625,0 -0.5747875,0.080803 -0.8203125,0.1616061 0.19425,0.7272271 0.8799,1.2120452 1.6953125,1.2120452 0.8918875,0 1.614375,-0.6464241 1.7227,-1.3736513 z" />
  <path
     style="fill:#7f8c8d;stroke-width:0.84084862"
     inkscape:connector-curvature="0"
     id="path12"
     d="m 17.068,9.0109257 c 0.2975,0 0.574875,0.080803 0.819875,0.2424091 C 17.693625,9.8997589 17.0085,10.46538 16.193,10.46538 c -0.8925,0 -1.614375,-0.6464241 -1.722875,-1.4544543 z" />
  <path
     style="fill:#95a5a6;stroke-width:0.84084862"
     inkscape:connector-curvature="0"
     id="path14"
     d="m 12,3.4355175 c -2.8994875,0 -5.25,2.1008784 -5.25,4.8481811 v 0.8080301 c 0,0.4040151 0.3917375,0.8080302 0.875,0.8080302 0.4832625,0 0.875,-0.4040151 0.875,-0.8080302 V 8.2836986 c 0,-1.9392725 1.567038,-3.4745298 3.5,-3.4745298 1.932875,0 3.5,1.5352573 3.5,3.4745298 v 0.8080301 c 0,0.4040151 0.392,0.8080302 0.875,0.8080302 0.483,0 0.875,-0.4040151 0.875,-0.8080302 V 8.2836986 C 17.25,5.5363959 14.89975,3.4355175 12,3.4355175 Z" />
  <g
     style="fill:#7e430f;fill-opacity:1"
     id="g24"
     transform="matrix(0.875,0,0,0.80803018,1.5,-829.15878)">
    <rect
       id="rect16"
       y="1041.4"
       x="6"
       width="12"
       height="1"
       style="fill:#7e430f;fill-opacity:1" />
    <rect
       id="rect18"
       y="1043.4"
       x="6"
       width="12"
       height="1"
       style="fill:#7e430f;fill-opacity:1" />
    <rect
       id="rect20"
       y="1045.4"
       x="6"
       width="12"
       height="1"
       style="fill:#7e430f;fill-opacity:1" />
    <rect
       id="rect22"
       y="1047.4"
       x="6"
       width="12"
       height="1"
       style="fill:#7e430f;fill-opacity:1" />
  </g>
</svg>
