<?xml version="1.0" encoding="UTF-8" standalone="no"?>
<svg
   xmlns:dc="http://purl.org/dc/elements/1.1/"
   xmlns:cc="http://creativecommons.org/ns#"
   xmlns:rdf="http://www.w3.org/1999/02/22-rdf-syntax-ns#"
   xmlns:svg="http://www.w3.org/2000/svg"
   xmlns="http://www.w3.org/2000/svg"
   xmlns:sodipodi="http://sodipodi.sourceforge.net/DTD/sodipodi-0.dtd"
   xmlns:inkscape="http://www.inkscape.org/namespaces/inkscape"
   height="24"
   version="1.1"
   width="24"
   id="svg28"
   sodipodi:docname="passwordmanager-monochrome.svg"
   inkscape:version="0.92.2 2405546, 2018-03-11">
  <metadata
     id="metadata34">
    <rdf:RDF>
      <cc:Work
         rdf:about="">
        <dc:format>image/svg+xml</dc:format>
        <dc:type
           rdf:resource="http://purl.org/dc/dcmitype/StillImage" />
      </cc:Work>
    </rdf:RDF>
  </metadata>
  <defs
     id="defs32" />
  <sodipodi:namedview
     pagecolor="#ffffff"
     bordercolor="#666666"
     borderopacity="1"
     objecttolerance="10"
     gridtolerance="10"
     guidetolerance="10"
     inkscape:pageopacity="0"
     inkscape:pageshadow="2"
     inkscape:window-width="1920"
     inkscape:window-height="1039"
     id="namedview30"
     showgrid="false"
     inkscape:zoom="9.8333333"
     inkscape:cx="5.5950835"
     inkscape:cy="13.311248"
     inkscape:window-x="0"
     inkscape:window-y="18"
     inkscape:window-maximized="1"
     inkscape:current-layer="svg28" />
  <path
     style="fill:#000000;fill-opacity:1"
     inkscape:connector-curvature="0"
     id="path2"
     d="M 12,3 C 9.2386,3 7,5.6 7,9 v 1 c 0,0.5 0.3731,1 0.8333,1 0.4603,0 0.8334,-0.5 0.8334,-1 V 9 c 0,-2.4 1.4923,-4.3 3.3333,-4.3 1.841,0 3.333,1.9 3.333,4.3 v 1 c 0,0.5 0.373,1 0.834,1 C 16.627,11 17,10.5 17,10 V 9 C 17,5.6 14.761,3 12,3 Z" />
  <path
     style="fill:#000000;fill-opacity:1"
     inkscape:connector-curvature="0"
     id="path4"
     d="M 6,9 C 4.8954,9 4,9.9 4,11 v 7 c 0,1.1 0.8954,2 2,2 h 12 c 1.105,0 2,-0.9 2,-2 V 11 C 20,9.9 19.105,9 18,9 Z" />
  <path
     style="fill:#090909;fill-opacity:1"
     inkscape:connector-curvature="0"
     id="path6"
     d="m 12,1.5 c -3.3137,0 -6,2.7 -6,6 v 1 c 0,0.6 0.4477,1 1,1 0.5523,0 1,-0.4 1,-1 v -1 c 0,-2.3 1.7909,-4.2 4,-4.2 2.209,0 4,1.9 4,4.2 v 1 c 0,0.6 0.448,1 1,1 0.552,0 1,-0.4 1,-1 v -1 c 0,-3.3 -2.686,-6 -6,-6 z" />
  <path
     style="fill:#0e0901;fill-opacity:1"
     inkscape:connector-curvature="0"
     id="path8"
     d="m 6,11 c -1.1046,0 -2,0.9 -2,2 v 7 c 0,1.1 0.8954,2 2,2 h 12 c 1.105,0 2,-0.9 2,-2 v -7 c 0,-1.1 -0.895,-2 -2,-2 z" />
  <path
     style="fill:#000000;fill-opacity:1"
     inkscape:connector-curvature="0"
     id="path14"
     d="M 12,2 C 8.6863,2 6,4.6 6,8 v 1 c 0,0.5 0.4477,1 1,1 0.5523,0 1,-0.5 1,-1 V 8 c 0,-2.4 1.7909,-4.3 4,-4.3 2.209,0 4,1.9 4,4.3 v 1 c 0,0.5 0.448,1 1,1 0.552,0 1,-0.5 1,-1 V 8 C 18,4.6 15.314,2 12,2 Z" />
  <g
     style="fill:#090909;fill-opacity:1"
     id="g24"
     transform="translate(0,-1028.4)">
    <rect
       id="rect16"
       y="1041.4"
       x="6"
       width="12"
       height="1"
       style="fill:#090909;fill-opacity:1" />
    <rect
       id="rect18"
       y="1043.4"
       x="6"
       width="12"
       height="1"
       style="fill:#090909;fill-opacity:1" />
    <rect
       id="rect20"
       y="1045.4"
       x="6"
       width="12"
       height="1"
       style="fill:#090909;fill-opacity:1" />
    <rect
       id="rect22"
       y="1047.4"
       x="6"
       width="12"
       height="1"
       style="fill:#090909;fill-opacity:1" />
  </g>
</svg>
